<svg width="558" height="98" viewBox="0 0 558 98" fill="none" xmlns="http://www.w3.org/2000/svg">
    <path
        d="M27.52 4.12C39.4667 4.12 48.9813 4.46133 56.064 5.144V18.2C56.064 22.04 55.6373 24.8133 54.784 26.52C53.3333 26.1787 51.6267 26.008 49.664 26.008C48.384 26.008 46.6347 26.0933 44.416 26.264C42.0267 26.4347 40.32 26.52 39.296 26.52L39.168 34.2C39.0827 35.9067 39.04 38.424 39.04 41.752C39.04 47.5547 39.2107 56.344 39.552 68.12C39.6373 71.0213 39.7227 74.648 39.808 79C39.8933 83.352 39.936 88.4293 39.936 94.232C39.5947 95.0853 37.76 95.512 34.432 95.512L29.44 95.384C27.0507 95.2133 25.344 95.128 24.32 95.128C22.016 95.128 20.0533 95.3413 18.432 95.768C17.7493 95.3413 17.408 94.4453 17.408 93.08C17.408 91.4587 17.4933 89.0267 17.664 85.784L17.792 78.488V61.592C17.792 46.6587 17.664 35.3947 17.408 27.8C16.384 27.288 15.1467 26.904 13.696 26.648C12.2453 26.3067 10.88 26.136 9.6 26.136L3.328 26.264C2.13333 26.264 1.32267 25.8373 0.896 24.984C0.554667 24.0453 0.384 22.7227 0.384 21.016L0.512 17.688V11.416C0.512 10.9893 0.512 10.136 0.512 8.856C0.512 7.49066 0.597333 6.21067 0.768 5.016H0.64L1.28 4.24799L27.52 4.12ZM54.272 25.112C54.6133 22.04 54.784 18.5413 54.784 14.616C54.784 11.1173 54.7413 8.472 54.656 6.67999C45.6107 5.82666 34.7307 5.39999 22.016 5.39999L1.92 5.52799C1.57867 6.89333 1.408 10.1787 1.408 15.384C1.408 20.4187 1.70667 23.5333 2.304 24.728C3.328 24.984 4.52267 25.112 5.888 25.112L11.008 24.984C12.7147 24.984 14.464 25.24 16.256 25.752C18.048 26.264 18.944 27.032 18.944 28.056C18.944 30.616 18.9013 32.7493 18.816 34.456L18.688 43.032C18.688 46.9573 18.7733 52.8453 18.944 60.696L19.072 78.36C19.072 79.2133 18.9867 80.92 18.816 83.48C18.6453 86.552 18.56 88.856 18.56 90.392C18.56 91.5013 18.6453 92.824 18.816 94.36C20.0107 94.104 21.8027 93.976 24.192 93.976C26.1547 93.976 27.648 94.0187 28.672 94.104L33.152 94.232C35.1147 94.232 36.9067 94.0613 38.528 93.72C38.016 81.0907 37.76 65.176 37.76 45.976V32.408V28.184C37.76 27.7573 37.76 27.3733 37.76 27.032C37.8453 26.6053 37.9307 26.3067 38.016 26.136V26.264C38.016 25.24 41.3867 24.728 48.128 24.728C50.8587 24.728 52.9067 24.856 54.272 25.112ZM38.272 25.624L38.4 25.496L38.144 25.88L38.272 25.624ZM105.835 54.808C105.835 58.4773 105.92 63.896 106.091 71.064L106.219 87.32C106.219 90.0507 105.92 92.2267 105.323 93.848C104.726 95.384 103.702 96.152 102.251 96.152C101.312 96.152 100.459 95.9813 99.691 95.64H89.707C89.0243 95.8107 88.555 95.896 88.299 95.896C86.6777 95.896 85.867 94.7013 85.867 92.312C85.867 91.6293 85.9523 90.6907 86.123 89.496C83.819 91.4587 81.3443 92.9947 78.699 94.104C76.0537 95.2133 73.3657 95.768 70.635 95.768C67.9043 95.768 65.515 95.256 63.467 94.232C61.0777 93.0373 58.859 90.6907 56.811 87.192C54.8483 83.6933 53.2697 79.64 52.075 75.032C50.9657 70.3387 50.411 65.7307 50.411 61.208C50.411 55.576 51.3923 50.456 53.355 45.848C55.403 41.24 58.219 37.6133 61.803 34.968C65.387 32.2373 69.483 30.872 74.091 30.872C77.0777 30.872 79.3817 31.1707 81.003 31.768C82.6243 32.28 84.0323 33.3467 85.227 34.968C85.3123 34.3707 85.3977 33.688 85.483 32.92C85.6537 32.152 85.739 31.4693 85.739 30.872L86.123 30.104C86.8057 29.848 88.2137 29.72 90.347 29.72C92.2243 29.72 95.1257 29.8907 99.051 30.232C101.355 30.488 103.36 30.616 105.067 30.616L105.707 31.256V31.768C105.963 32.536 106.091 33.6027 106.091 34.968C106.091 35.736 106.048 36.4187 105.963 37.016C105.878 37.528 105.835 37.9973 105.835 38.424V54.808ZM104.299 93.72C104.299 91.2453 104.384 87.3627 104.555 82.072C104.811 78.0613 104.939 74.0933 104.939 70.168L104.811 51.224C104.64 42.6907 104.555 36.376 104.555 32.28C104.47 32.1947 104.427 32.0667 104.427 31.896C101.526 31.896 98.5817 31.768 95.595 31.512C91.8403 31.3413 88.9817 31.256 87.019 31.256C87.019 32.024 86.891 32.8773 86.635 33.816C86.5497 34.1573 86.4643 34.5413 86.379 34.968C86.2937 35.3093 86.251 35.7787 86.251 36.376L86.379 37.144C86.379 37.2293 86.379 37.272 86.379 37.272C86.4643 37.272 86.507 37.272 86.507 37.272C85.995 37.4427 85.611 37.528 85.355 37.528H85.227L85.099 37.272C83.9043 35.224 82.4537 33.8587 80.747 33.176C79.1257 32.4933 76.907 32.152 74.091 32.152C69.6537 32.152 65.7283 33.432 62.315 35.992C58.987 38.4667 56.3843 41.9227 54.507 46.36C52.715 50.7973 51.819 55.704 51.819 61.08C51.819 66.456 52.5017 71.7467 53.867 76.952C55.3177 82.072 57.451 86.296 60.267 89.624C63.1683 92.952 66.6243 94.616 70.635 94.616C73.451 94.616 76.267 93.9333 79.083 92.568C81.9843 91.2027 84.5017 89.4533 86.635 87.32C86.8057 87.4907 87.147 87.6613 87.659 87.832C87.659 88.2587 87.5737 88.984 87.403 90.008C87.2323 90.9467 87.147 91.672 87.147 92.184C87.147 92.7813 87.1897 93.2507 87.275 93.592C87.4457 93.9333 87.7443 94.232 88.171 94.488H89.067C90.091 94.1467 91.9683 93.976 94.699 93.976C97.4297 93.976 99.307 94.1467 100.331 94.488H103.531L104.299 93.72ZM79.723 47.896C82.1123 47.896 83.7763 48.28 84.715 49.048C85.739 49.7307 86.379 51.2667 86.635 53.656C86.9763 55.96 87.147 59.9707 87.147 65.688C87.147 69.6133 86.507 72.6853 85.227 74.904C83.947 77.0373 81.771 78.104 78.699 78.104C74.6883 78.104 71.5737 76.6107 69.355 73.624C67.2217 70.552 66.155 66.968 66.155 62.872C66.155 60.4827 66.539 58.3493 67.307 56.472L67.179 56.6C67.691 53.784 69.1417 51.6507 71.531 50.2C73.9203 48.664 76.651 47.896 79.723 47.896ZM85.739 61.72L85.867 56.728C85.867 54.3387 85.5683 52.504 84.971 51.224C84.459 49.8587 83.179 49.176 81.131 49.176C77.8883 49.176 75.0723 49.7733 72.683 50.968C70.379 52.1627 68.971 54.168 68.459 56.984C67.7763 58.4347 67.435 60.3547 67.435 62.744C67.435 66.584 68.3737 69.912 70.251 72.728C72.2137 75.4587 74.9443 76.824 78.443 76.824C83.3923 76.824 85.867 73.6667 85.867 67.352L85.739 61.72ZM165.686 51.352C161.505 51.9493 157.75 52.248 154.422 52.248C149.814 52.248 147.254 51.6507 146.742 50.456V50.328C146.742 48.28 146.017 46.6587 144.566 45.464C143.201 44.2693 141.537 43.672 139.574 43.672C137.953 43.672 136.545 44.056 135.35 44.824C134.155 45.5067 133.43 46.616 133.174 48.152C133.174 51.224 134.283 53.3147 136.502 54.424C138.806 55.5333 142.091 56.3867 146.358 56.984C149.003 57.4107 150.497 57.6667 150.838 57.752C155.531 58.9467 159.158 61.1227 161.718 64.28C164.278 67.352 165.558 71.064 165.558 75.416C165.558 83.5227 162.998 89.2827 157.878 92.696C152.843 96.024 146.87 97.688 139.958 97.688C131.51 97.688 124.47 95.896 118.838 92.312C113.291 88.728 110.518 82.968 110.518 75.032C111.286 74.264 113.121 73.88 116.022 73.88H118.07L123.83 73.752C127.755 73.752 130.059 74.0933 130.742 74.776V75.288L131.126 75.416H130.742C130.913 77.208 131.723 78.616 133.174 79.64C134.71 80.5787 136.502 81.048 138.55 81.048C140.769 81.048 142.518 80.536 143.798 79.512C145.163 78.4027 145.846 76.952 145.846 75.16C145.846 72.856 144.651 71.192 142.262 70.168C139.958 69.144 136.971 68.3333 133.302 67.736C127.414 66.712 122.337 64.4507 118.07 60.952C113.889 57.4533 111.798 53.016 111.798 47.64C111.798 40.216 114.315 35.0533 119.35 32.152C124.47 29.1653 130.486 27.672 137.398 27.672C142.262 27.672 146.443 27.928 149.942 28.44C153.441 28.952 156.47 30.1893 159.03 32.152C161.59 34.1147 163.425 36.76 164.534 40.088C165.643 43.416 166.198 46.9573 166.198 50.712L165.686 51.352ZM155.446 51.096C158.177 51.096 161.334 50.7973 164.918 50.2C164.918 44.2267 163.723 39.704 161.334 36.632C159.03 33.56 156.086 31.5547 152.502 30.616C149.003 29.592 144.865 29.08 140.086 29.08C132.406 29.08 126.006 30.2747 120.886 32.664C115.766 34.968 113.206 39.9173 113.206 47.512C113.206 52.12 114.87 56.088 118.198 59.416C121.526 62.744 125.835 64.9627 131.126 66.072L133.814 66.584C137.739 67.1813 140.897 68.0347 143.286 69.144C145.675 70.168 146.87 72.0453 146.87 74.776C146.87 77.336 146.102 79.2987 144.566 80.664C143.03 81.944 141.195 82.584 139.062 82.584C136.758 82.584 134.625 81.9013 132.662 80.536C130.785 79.1707 129.718 77.464 129.462 75.416C124.513 75.2453 120.758 75.16 118.198 75.16C115.297 75.16 113.163 75.2453 111.798 75.416C111.798 82.584 114.401 87.9173 119.606 91.416C124.897 94.8293 131.254 96.536 138.678 96.536C155.574 96.536 164.022 89.5387 164.022 75.544C164.022 71.5333 162.913 68.12 160.694 65.304C158.475 62.4027 155.105 60.312 150.582 59.032C150.241 58.9467 148.747 58.6907 146.102 58.264C141.75 57.6667 138.294 56.728 135.734 55.448C133.174 54.168 131.894 51.9067 131.894 48.664C131.894 46.7013 132.619 45.1653 134.07 44.056C135.521 42.8613 137.227 42.264 139.19 42.264C141.494 42.264 143.542 42.9893 145.334 44.44C147.126 45.8053 148.022 47.7253 148.022 50.2C150.326 50.7973 152.801 51.096 155.446 51.096ZM189.775 41.496C189.775 42.4347 189.86 43.7573 190.031 45.464C191.738 43.5867 193.7 40.8133 195.919 37.144C196.943 35.5227 198.052 33.8587 199.247 32.152C200.442 30.4453 201.636 28.9947 202.831 27.8C204.708 28.568 207.098 28.952 209.999 28.952C211.45 28.952 212.73 28.9093 213.839 28.824C215.034 28.7387 216.015 28.6533 216.783 28.568C219.002 28.312 221.05 28.184 222.927 28.184L223.439 29.208C220.794 33.2187 216.399 39.2773 210.255 47.384C207.354 50.968 204.794 54.3387 202.575 57.496C205.647 62.616 207.994 66.456 209.615 69.016C210.383 70.296 212.388 73.6667 215.631 79.128C218.959 84.504 221.988 89.7093 224.719 94.744C224.292 95.3413 222.415 95.768 219.087 96.024C215.844 96.28 212.431 96.408 208.847 96.408C205.86 96.408 203.855 95.9813 202.831 95.128C201.807 94.36 201.039 93.336 200.527 92.056C200.1 90.6907 199.716 89.6667 199.375 88.984C197.327 84.7173 195.706 81.432 194.511 79.128C193.316 76.824 191.908 74.5627 190.287 72.344L190.415 78.872C190.586 81.944 190.671 84.2907 190.671 85.912C190.671 89.752 190.372 92.8667 189.775 95.256C188.58 95.8533 186.234 96.152 182.735 96.152H178.255C175.183 96.152 172.964 95.8107 171.599 95.128C171.172 83.608 170.959 73.2827 170.959 64.152C170.959 53.8267 171.087 43.5013 171.343 33.176C171.514 19.352 171.599 9.02666 171.599 2.2C172.367 1.432 175.055 1.048 179.663 1.048L184.783 0.919998C188.111 0.919998 189.946 1.304 190.287 2.072V30.104C190.287 31.2987 190.202 33.176 190.031 35.736C189.86 38.296 189.775 40.216 189.775 41.496ZM189.007 2.58399C187.983 2.41333 186.404 2.328 184.271 2.328C182.906 2.328 180.943 2.41333 178.383 2.58399L172.879 2.712C172.879 9.45333 172.794 19.6507 172.623 33.304C172.367 43.544 172.239 53.7413 172.239 63.896C172.239 72.9413 172.452 83.1387 172.879 94.488C173.903 94.6587 175.567 94.744 177.871 94.744C179.578 94.744 182.052 94.6587 185.295 94.488L188.623 94.36C189.22 91.4587 189.519 88.344 189.519 85.016C189.519 83.3093 189.434 80.8347 189.263 77.592C189.092 74.3493 189.007 71.96 189.007 70.424L190.159 69.912C192.292 72.984 194.81 77.4213 197.711 83.224C200.271 88.344 202.319 92.0987 203.855 94.488C205.391 95 207.396 95.256 209.871 95.256C211.407 95.256 213.626 95.0853 216.527 94.744C217.38 94.6587 218.319 94.5733 219.343 94.488C220.452 94.4027 221.69 94.36 223.055 94.36C219.812 88.3867 215.034 80.28 208.719 70.04L201.295 57.752V57.24C204.708 52.632 207.311 49.2187 209.103 47C214.906 39.32 219.13 33.4747 221.775 29.464C219.898 29.464 217.935 29.592 215.887 29.848C215.119 29.9333 214.18 30.0187 213.071 30.104C212.047 30.1893 210.81 30.232 209.359 30.232C206.714 30.232 204.538 29.8907 202.831 29.208C201.978 30.3173 200.954 31.9387 199.759 34.072C199.588 34.4133 199.119 35.1813 198.351 36.376C197.668 37.5707 196.986 38.5093 196.303 39.192C193.914 42.8613 191.823 45.5493 190.031 47.256C189.434 47 189.007 46.488 188.751 45.72C188.58 44.952 188.495 43.9707 188.495 42.776C188.495 41.3253 188.58 39.2347 188.751 36.504C188.922 33.6027 189.007 31.512 189.007 30.232V2.58399ZM276.376 95.384C275.352 95.384 273.901 95.4693 272.024 95.64L267.928 95.768C265.795 95.768 264.472 95.4693 263.96 94.872C263.533 94.2747 263.32 92.8667 263.32 90.648L263.448 79C263.448 65.7733 263.064 55.2347 262.296 47.384L260.376 52.76C259.437 55.7467 258.584 58.136 257.816 59.928C257.048 61.72 256.024 63.256 254.744 64.536C253.037 64.536 250.861 60.6107 248.216 52.76C247.96 52.1627 247.747 51.5653 247.576 50.968C247.405 50.3707 247.192 49.7733 246.936 49.176C246.595 53.528 246.424 58.3493 246.424 63.64C246.424 70.4667 246.851 80.792 247.704 94.616C247.363 95.384 245.272 95.768 241.432 95.768L235.16 95.64L230.296 95.768C229.101 95.768 228.333 95.0427 227.992 93.592C227.736 92.1413 227.608 89.7093 227.608 86.296V60.056C227.608 54.2533 227.693 45.464 227.864 33.688L227.992 7.31999L228.376 6.55199C229.571 5.95466 232.045 5.656 235.8 5.656L242.072 5.784C243.181 5.86933 244.547 5.91199 246.168 5.91199C247.277 7.02133 248.173 8.38666 248.856 10.008C249.539 11.6293 250.264 13.72 251.032 16.28C252.312 20.8027 253.72 23.9173 255.256 25.624C256.109 23.9173 256.963 21.1867 257.816 17.432C258.499 14.5307 259.181 12.2267 259.864 10.52C260.547 8.72799 261.613 7.10666 263.064 5.656C263.917 5.82666 264.643 5.91199 265.24 5.91199C267.885 5.91199 270.616 5.78399 273.432 5.52799C274.285 5.52799 275.565 5.48533 277.272 5.39999C278.979 5.22933 280.515 5.144 281.88 5.144C281.88 5.144 282.093 5.35733 282.52 5.784C282.349 8.34399 282.264 12.1413 282.264 17.176C282.264 20.248 282.349 24.856 282.52 31L282.648 44.568C282.648 54.2107 282.52 63.896 282.264 73.624C282.093 83.1813 282.008 90.3493 282.008 95.128L281.368 95.768L276.376 95.384ZM273.944 93.976C276.504 93.976 278.765 94.104 280.728 94.36C280.728 89.24 280.813 81.3893 280.984 70.808C281.24 62.872 281.368 54.8933 281.368 46.872L281.24 32.28C281.069 25.7947 280.984 20.9307 280.984 17.688C280.984 12.6533 281.069 8.89866 281.24 6.424C280.131 6.424 278.979 6.46666 277.784 6.55199C276.675 6.63733 275.608 6.72266 274.584 6.808C270.659 7.14933 267.843 7.31999 266.136 7.31999C265.197 7.31999 264.216 7.23466 263.192 7.064C262.424 8.00266 261.741 9.32533 261.144 11.032C260.632 12.7387 259.949 15.128 259.096 18.2C258.584 19.992 258.072 21.7413 257.56 23.448C257.048 25.0693 256.536 26.136 256.024 26.648L255.512 26.904C254.488 26.904 253.677 26.264 253.08 24.984C252.483 23.704 251.757 21.5707 250.904 18.584C250.136 15.9387 249.368 13.72 248.6 11.928C247.917 10.0507 247.021 8.472 245.912 7.19199L238.104 7.064C234.52 7.064 231.576 7.27733 229.272 7.70399C229.272 19.6507 229.144 31.64 228.888 43.672C228.803 47.6827 228.717 52.7173 228.632 58.776C228.547 64.8347 228.504 71.9173 228.504 80.024C228.504 84.8027 228.76 89.496 229.272 94.104V94.36L239.128 94.488C242.371 94.488 244.803 94.36 246.424 94.104C245.571 80.6213 245.144 70.5947 245.144 64.024C245.144 57.624 245.443 51.6933 246.04 46.232V45.976L246.424 46.104L247.32 45.72L247.192 46.104H247.32C247.32 46.616 247.832 48.3653 248.856 51.352C249.88 54.2533 250.947 56.984 252.056 59.544C253.251 62.0187 254.061 63.256 254.488 63.256C255.683 61.8053 256.963 58.6907 258.328 53.912C259.181 51.1813 259.864 49.176 260.376 47.896C260.888 46.5307 261.528 45.464 262.296 44.696C262.467 44.8667 262.808 45.0373 263.32 45.208C263.917 50.072 264.301 55.0213 264.472 60.056C264.643 65.0907 264.728 71.3627 264.728 78.872L264.6 87.32C264.6 89.7093 264.728 92.056 264.984 94.36H269.72C270.744 94.104 272.152 93.976 273.944 93.976ZM343.46 54.808C343.46 58.4773 343.545 63.896 343.716 71.064L343.844 87.32C343.844 90.0507 343.545 92.2267 342.948 93.848C342.351 95.384 341.327 96.152 339.876 96.152C338.937 96.152 338.084 95.9813 337.316 95.64H327.332C326.649 95.8107 326.18 95.896 325.924 95.896C324.303 95.896 323.492 94.7013 323.492 92.312C323.492 91.6293 323.577 90.6907 323.748 89.496C321.444 91.4587 318.969 92.9947 316.324 94.104C313.679 95.2133 310.991 95.768 308.26 95.768C305.529 95.768 303.14 95.256 301.092 94.232C298.703 93.0373 296.484 90.6907 294.436 87.192C292.473 83.6933 290.895 79.64 289.7 75.032C288.591 70.3387 288.036 65.7307 288.036 61.208C288.036 55.576 289.017 50.456 290.98 45.848C293.028 41.24 295.844 37.6133 299.428 34.968C303.012 32.2373 307.108 30.872 311.716 30.872C314.703 30.872 317.007 31.1707 318.628 31.768C320.249 32.28 321.657 33.3467 322.852 34.968C322.937 34.3707 323.023 33.688 323.108 32.92C323.279 32.152 323.364 31.4693 323.364 30.872L323.748 30.104C324.431 29.848 325.839 29.72 327.972 29.72C329.849 29.72 332.751 29.8907 336.676 30.232C338.98 30.488 340.985 30.616 342.692 30.616L343.332 31.256V31.768C343.588 32.536 343.716 33.6027 343.716 34.968C343.716 35.736 343.673 36.4187 343.588 37.016C343.503 37.528 343.46 37.9973 343.46 38.424V54.808ZM341.924 93.72C341.924 91.2453 342.009 87.3627 342.18 82.072C342.436 78.0613 342.564 74.0933 342.564 70.168L342.436 51.224C342.265 42.6907 342.18 36.376 342.18 32.28C342.095 32.1947 342.052 32.0667 342.052 31.896C339.151 31.896 336.207 31.768 333.22 31.512C329.465 31.3413 326.607 31.256 324.644 31.256C324.644 32.024 324.516 32.8773 324.26 33.816C324.175 34.1573 324.089 34.5413 324.004 34.968C323.919 35.3093 323.876 35.7787 323.876 36.376L324.004 37.144C324.004 37.2293 324.004 37.272 324.004 37.272C324.089 37.272 324.132 37.272 324.132 37.272C323.62 37.4427 323.236 37.528 322.98 37.528H322.852L322.724 37.272C321.529 35.224 320.079 33.8587 318.372 33.176C316.751 32.4933 314.532 32.152 311.716 32.152C307.279 32.152 303.353 33.432 299.94 35.992C296.612 38.4667 294.009 41.9227 292.132 46.36C290.34 50.7973 289.444 55.704 289.444 61.08C289.444 66.456 290.127 71.7467 291.492 76.952C292.943 82.072 295.076 86.296 297.892 89.624C300.793 92.952 304.249 94.616 308.26 94.616C311.076 94.616 313.892 93.9333 316.708 92.568C319.609 91.2027 322.127 89.4533 324.26 87.32C324.431 87.4907 324.772 87.6613 325.284 87.832C325.284 88.2587 325.199 88.984 325.028 90.008C324.857 90.9467 324.772 91.672 324.772 92.184C324.772 92.7813 324.815 93.2507 324.9 93.592C325.071 93.9333 325.369 94.232 325.796 94.488H326.692C327.716 94.1467 329.593 93.976 332.324 93.976C335.055 93.976 336.932 94.1467 337.956 94.488H341.156L341.924 93.72ZM317.348 47.896C319.737 47.896 321.401 48.28 322.34 49.048C323.364 49.7307 324.004 51.2667 324.26 53.656C324.601 55.96 324.772 59.9707 324.772 65.688C324.772 69.6133 324.132 72.6853 322.852 74.904C321.572 77.0373 319.396 78.104 316.324 78.104C312.313 78.104 309.199 76.6107 306.98 73.624C304.847 70.552 303.78 66.968 303.78 62.872C303.78 60.4827 304.164 58.3493 304.932 56.472L304.804 56.6C305.316 53.784 306.767 51.6507 309.156 50.2C311.545 48.664 314.276 47.896 317.348 47.896ZM323.364 61.72L323.492 56.728C323.492 54.3387 323.193 52.504 322.596 51.224C322.084 49.8587 320.804 49.176 318.756 49.176C315.513 49.176 312.697 49.7733 310.308 50.968C308.004 52.1627 306.596 54.168 306.084 56.984C305.401 58.4347 305.06 60.3547 305.06 62.744C305.06 66.584 305.999 69.912 307.876 72.728C309.839 75.4587 312.569 76.824 316.068 76.824C321.017 76.824 323.492 73.6667 323.492 67.352L323.364 61.72ZM403.311 51.352C399.13 51.9493 395.375 52.248 392.047 52.248C387.439 52.248 384.879 51.6507 384.367 50.456V50.328C384.367 48.28 383.642 46.6587 382.191 45.464C380.826 44.2693 379.162 43.672 377.199 43.672C375.578 43.672 374.17 44.056 372.975 44.824C371.78 45.5067 371.055 46.616 370.799 48.152C370.799 51.224 371.908 53.3147 374.127 54.424C376.431 55.5333 379.716 56.3867 383.983 56.984C386.628 57.4107 388.122 57.6667 388.463 57.752C393.156 58.9467 396.783 61.1227 399.343 64.28C401.903 67.352 403.183 71.064 403.183 75.416C403.183 83.5227 400.623 89.2827 395.503 92.696C390.468 96.024 384.495 97.688 377.583 97.688C369.135 97.688 362.095 95.896 356.463 92.312C350.916 88.728 348.143 82.968 348.143 75.032C348.911 74.264 350.746 73.88 353.647 73.88H355.695L361.455 73.752C365.38 73.752 367.684 74.0933 368.367 74.776V75.288L368.751 75.416H368.367C368.538 77.208 369.348 78.616 370.799 79.64C372.335 80.5787 374.127 81.048 376.175 81.048C378.394 81.048 380.143 80.536 381.423 79.512C382.788 78.4027 383.471 76.952 383.471 75.16C383.471 72.856 382.276 71.192 379.887 70.168C377.583 69.144 374.596 68.3333 370.927 67.736C365.039 66.712 359.962 64.4507 355.695 60.952C351.514 57.4533 349.423 53.016 349.423 47.64C349.423 40.216 351.94 35.0533 356.975 32.152C362.095 29.1653 368.111 27.672 375.023 27.672C379.887 27.672 384.068 27.928 387.567 28.44C391.066 28.952 394.095 30.1893 396.655 32.152C399.215 34.1147 401.05 36.76 402.159 40.088C403.268 43.416 403.823 46.9573 403.823 50.712L403.311 51.352ZM393.071 51.096C395.802 51.096 398.959 50.7973 402.543 50.2C402.543 44.2267 401.348 39.704 398.959 36.632C396.655 33.56 393.711 31.5547 390.127 30.616C386.628 29.592 382.49 29.08 377.711 29.08C370.031 29.08 363.631 30.2747 358.511 32.664C353.391 34.968 350.831 39.9173 350.831 47.512C350.831 52.12 352.495 56.088 355.823 59.416C359.151 62.744 363.46 64.9627 368.751 66.072L371.439 66.584C375.364 67.1813 378.522 68.0347 380.911 69.144C383.3 70.168 384.495 72.0453 384.495 74.776C384.495 77.336 383.727 79.2987 382.191 80.664C380.655 81.944 378.82 82.584 376.687 82.584C374.383 82.584 372.25 81.9013 370.287 80.536C368.41 79.1707 367.343 77.464 367.087 75.416C362.138 75.2453 358.383 75.16 355.823 75.16C352.922 75.16 350.788 75.2453 349.423 75.416C349.423 82.584 352.026 87.9173 357.231 91.416C362.522 94.8293 368.879 96.536 376.303 96.536C393.199 96.536 401.647 89.5387 401.647 75.544C401.647 71.5333 400.538 68.12 398.319 65.304C396.1 62.4027 392.73 60.312 388.207 59.032C387.866 58.9467 386.372 58.6907 383.727 58.264C379.375 57.6667 375.919 56.728 373.359 55.448C370.799 54.168 369.519 51.9067 369.519 48.664C369.519 46.7013 370.244 45.1653 371.695 44.056C373.146 42.8613 374.852 42.264 376.815 42.264C379.119 42.264 381.167 42.9893 382.959 44.44C384.751 45.8053 385.647 47.7253 385.647 50.2C387.951 50.7973 390.426 51.096 393.071 51.096ZM433.288 31.128C435.763 31.128 439.475 30.9573 444.424 30.616C446.216 30.4453 448.733 30.2747 451.976 30.104C453.171 31.384 453.768 33.304 453.768 35.864C453.768 37.2293 453.64 38.6373 453.384 40.088C453.213 41.9653 453.128 43.3307 453.128 44.184C453.128 45.0373 453.171 45.6773 453.256 46.104L453.512 47.64L433.544 47.384V59.8C433.544 65.3467 433.587 69.528 433.672 72.344C434.781 74.136 436.872 75.416 439.944 76.184C443.016 76.8667 446.259 77.208 449.672 77.208C451.123 77.208 452.147 77.1653 452.744 77.08C453.768 79.128 454.28 83.224 454.28 89.368C454.28 91.5013 453.981 93.464 453.384 95.256C452.787 95.5973 451.507 95.768 449.544 95.768C441.608 95.768 434.824 95.0427 429.192 93.592C423.645 92.1413 419.635 88.9413 417.16 83.992C416.392 82.5413 415.88 80.3653 415.624 77.464C415.368 74.4773 415.197 71.832 415.112 69.528C415.112 67.224 415.112 65.816 415.112 65.304C414.941 60.696 414.856 57.2827 414.856 55.064C414.856 51.8213 414.899 49.3893 414.984 47.768C414.216 47.8533 413.277 47.896 412.168 47.896C411.144 47.896 410.419 47.896 409.992 47.896C407.773 47.896 406.365 47.5973 405.768 47V45.72V40.216C405.768 34.328 406.152 31.2133 406.92 30.872C407.859 30.9573 409.224 31 411.016 31H415.24C415.24 29.208 415.155 26.264 414.984 22.168C414.728 18.9253 414.6 15.7253 414.6 12.568C414.6 10.6053 414.813 9.06933 415.24 7.96C415.667 6.85066 416.605 6.296 418.056 6.296C419.165 6.296 420.147 6.33866 421 6.424C421.939 6.50933 422.707 6.59466 423.304 6.67999C425.693 7.02133 427.528 7.19199 428.808 7.19199C430.173 7.19199 431.197 7.10666 431.88 6.936L433.288 6.67999V31.128ZM431.88 8.34399C430.685 8.51466 429.789 8.6 429.192 8.6C427.997 8.6 426.205 8.42933 423.816 8.088C421.256 7.74666 419.421 7.576 418.312 7.576C417.459 7.576 416.904 7.74666 416.648 8.088C416.392 8.34399 416.264 8.77066 416.264 9.368L416.392 20.504C416.477 22.9787 416.52 26.6907 416.52 31.64C415.923 32.2373 414.685 32.536 412.808 32.536C411.784 32.536 410.845 32.4933 409.992 32.408C409.139 32.3227 408.285 32.28 407.432 32.28L407.048 46.488C409.693 46.488 412.808 46.3173 416.392 45.976C416.221 48.1947 416.136 51.6507 416.136 56.344C416.136 63.6827 416.477 70.2533 417.16 76.056C417.245 76.6533 417.331 77.72 417.416 79.256C417.587 80.7067 417.843 82.0293 418.184 83.224C418.525 84.4187 419.037 85.4427 419.72 86.296C424.072 91.7573 433.075 94.488 446.728 94.488C449.288 94.488 451.123 94.4453 452.232 94.36C452.744 92.6533 453 90.9467 453 89.24C453 87.3627 452.872 85.3147 452.616 83.096C452.36 80.792 452.189 79.2133 452.104 78.36C451.592 78.4453 450.653 78.488 449.288 78.488C445.448 78.488 441.608 77.9333 437.768 76.824C434.013 75.6293 432.136 73.7947 432.136 71.32L432.264 68.888L432.392 57.496C432.392 53.2293 432.349 50.2853 432.264 48.664C432.179 47.0427 432.179 46.1893 432.264 46.104H451.848C451.677 45.2507 451.592 44.568 451.592 44.056C451.592 42.776 451.72 41.4533 451.976 40.088C451.976 39.6613 452.019 38.9787 452.104 38.04C452.275 37.1013 452.36 36.2907 452.36 35.608C452.36 33.816 452.104 32.408 451.592 31.384L445.832 31.768C444.637 31.8533 442.547 31.9813 439.56 32.152C436.659 32.3227 434.099 32.408 431.88 32.408V8.34399ZM484.324 80.92C489.273 80.92 491.748 77.464 491.748 70.552L492.516 69.784C492.943 69.8693 493.668 69.912 494.692 69.912C495.631 69.912 497.209 69.8267 499.428 69.656C501.647 69.4853 503.268 69.4 504.292 69.4C505.657 69.4 506.724 69.4853 507.492 69.656C508.26 69.8267 508.815 70.2533 509.156 70.936C508.815 72.5573 508.559 75.032 508.388 78.36C508.047 82.712 507.492 86.1253 506.724 88.6C505.956 91.0747 504.164 93.1653 501.348 94.872C498.617 96.4933 494.436 97.304 488.804 97.304H483.94C479.673 97.304 476.004 96.92 472.932 96.152C469.86 95.4693 467.3 93.976 465.252 91.672C459.279 84.76 456.292 75.1173 456.292 62.744C456.292 57.4533 456.804 51.8213 457.828 45.848C458.767 40.1307 461.668 35.8213 466.532 32.92C471.396 30.0187 476.943 28.568 483.172 28.568C486.159 28.568 489.273 28.9093 492.516 29.592C495.759 30.2747 498.489 31.4267 500.708 33.048C503.865 35.4373 506.169 38.68 507.62 42.776C509.071 46.7867 509.796 51.1387 509.796 55.832C509.796 57.88 509.668 59.8853 509.412 61.848C507.961 63.2987 500.367 64.024 486.628 64.024C485.263 64.024 484.196 64.0667 483.428 64.152L479.204 64.28C477.497 64.28 476.132 64.1093 475.108 63.768V65.176C475.108 69.528 475.791 73.24 477.156 76.312C478.521 79.384 480.911 80.92 484.324 80.92ZM473.828 63C474.425 62.5733 474.767 62.36 474.852 62.36C475.62 62.7867 477.071 63 479.204 63C480.569 63 481.721 62.9573 482.66 62.872C483.599 62.7867 484.324 62.744 484.836 62.744C497.892 62.744 505.657 62.2747 508.132 61.336C508.303 58.9467 508.388 57.1547 508.388 55.96C508.388 46.6587 505.828 39.576 500.708 34.712C498.831 32.8347 496.271 31.5547 493.028 30.872C489.785 30.104 486.372 29.72 482.788 29.72C478.18 29.72 473.913 30.616 469.988 32.408C466.063 34.1147 463.033 36.76 460.9 40.344C459.62 42.648 458.767 45.4213 458.34 48.664C457.913 51.9067 457.7 55.4907 457.7 59.416C457.7 66.2427 458.255 72.216 459.364 77.336C460.473 82.456 462.735 86.936 466.148 90.776C468.025 92.9093 470.415 94.3173 473.316 95C476.303 95.6827 479.844 96.024 483.94 96.024H489.572C494.692 96.024 498.489 95.1707 500.964 93.464C503.524 91.672 505.145 89.496 505.828 86.936C506.511 84.376 506.98 81.048 507.236 76.952C507.407 74.2213 507.577 72.3013 507.748 71.192C506.809 70.8507 505.572 70.68 504.036 70.68C502.329 70.68 500.58 70.808 498.788 71.064C496.569 71.2347 495.076 71.32 494.308 71.32L493.028 71.192C493.028 74.264 492.217 76.952 490.596 79.256C488.975 81.4747 486.969 82.584 484.58 82.584C480.569 82.584 477.753 80.8347 476.132 77.336C474.596 73.752 473.828 69.7413 473.828 65.304V63ZM495.588 52.888C495.588 53.3147 495.289 53.6133 494.692 53.784C494.18 53.9547 493.583 54.04 492.9 54.04C491.62 54.04 490.553 53.8693 489.7 53.528H482.66C480.356 53.784 478.82 53.912 478.052 53.912C475.321 53.912 473.956 53.1013 473.956 51.48C473.956 48.152 474.937 45.6347 476.9 43.928C478.863 42.136 481.423 41.24 484.58 41.24C486.713 41.24 488.633 41.6667 490.34 42.52C493.839 44.312 495.588 47.768 495.588 52.888ZM484.196 42.264C481.636 42.264 479.503 43.16 477.796 44.952C476.089 46.744 475.236 49.0907 475.236 51.992C476.26 52.504 477.497 52.76 478.948 52.76C479.887 52.76 480.697 52.7173 481.38 52.632C482.148 52.5467 482.788 52.4613 483.3 52.376C484.751 52.12 486.159 51.992 487.524 51.992C488.463 51.992 489.7 52.0773 491.236 52.248C492.601 52.4187 493.625 52.504 494.308 52.504C494.308 48.0667 492.772 45.1227 489.7 43.672C487.652 42.7333 485.817 42.264 484.196 42.264ZM515.599 95.256C515.599 89.1973 515.514 80.1947 515.343 68.248C515.087 59.1173 514.959 49.8587 514.959 40.472C514.959 34.2427 515.343 30.9573 516.111 30.616C516.794 30.616 517.519 30.7013 518.287 30.872C519.055 30.9573 519.823 31 520.591 31C521.188 31 522.17 30.9147 523.535 30.744C525.412 30.4027 527.844 30.232 530.831 30.232C531.77 30.232 532.495 30.2747 533.007 30.36C533.519 30.4453 533.86 30.6587 534.031 31V34.456C536.676 33.2613 539.706 32.28 543.119 31.512C546.532 30.6587 549.732 30.232 552.719 30.232C554.084 30.232 555.194 30.3173 556.047 30.488C556.986 30.5733 557.583 30.872 557.839 31.384L557.711 38.808C557.54 42.2213 557.455 44.7813 557.455 46.488C557.455 48.9627 557.583 51.4373 557.839 53.912L556.943 54.552C554.212 53.528 551.652 52.8453 549.263 52.504C546.959 52.1627 544.442 51.992 541.711 51.992C536.164 51.992 533.391 54.8933 533.391 60.696C533.391 66.328 533.519 71.96 533.775 77.592C533.946 85.272 534.031 90.9467 534.031 94.616C533.69 95.4693 531.983 95.896 528.911 95.896C527.119 95.896 525.754 95.8533 524.815 95.768L520.591 95.64L515.599 95.256ZM532.879 34.968C532.708 34.456 532.623 33.9867 532.623 33.56L532.751 31.512H529.551C528.783 31.8533 527.631 32.1093 526.095 32.28C524.559 32.4507 523.066 32.536 521.615 32.536C520.762 32.536 519.823 32.4933 518.799 32.408C517.86 32.2373 517.178 32.1093 516.751 32.024C516.495 38.7653 516.367 45.592 516.367 52.504C516.367 58.136 516.452 66.584 516.623 77.848C516.794 85.3573 516.879 90.9467 516.879 94.616C517.562 94.5307 518.543 94.488 519.823 94.488C521.53 94.488 522.81 94.5307 523.663 94.616L527.375 94.744C529.508 94.744 531.3 94.5307 532.751 94.104C532.751 90.6053 532.666 85.1867 532.495 77.848C532.324 70.68 532.239 65.304 532.239 61.72C532.239 58.2213 532.879 55.5333 534.159 53.656C535.524 51.6933 538.17 50.712 542.095 50.712C546.959 50.712 551.738 51.48 556.431 53.016C556.175 50.968 556.047 48.8347 556.047 46.616C556.047 45.08 556.132 42.6053 556.303 39.192C556.474 35.9493 556.559 33.5173 556.559 31.896C551.866 31.896 547.727 32.1947 544.143 32.792C540.559 33.304 537.146 34.3707 533.903 35.992L532.879 35.352V34.968Z"
        fill="white" />
</svg>